<svg width="24" height="25" viewBox="0 0 24 25" fill="none" xmlns="http://www.w3.org/2000/svg">
<path d="M5.7677 10.6152C5.52799 10.6152 5.31492 10.7097 5.15512 10.8851C4.982 11.0605 4.9021 11.2764 4.9021 11.5328C4.9021 11.7891 4.982 11.9915 5.15512 12.1805C5.32824 12.3559 5.52799 12.4503 5.7677 12.4503C6.0074 12.4503 6.22047 12.3559 6.39359 12.1805C6.56671 12.005 6.65993 11.7891 6.65993 11.5328C6.65993 11.2764 6.56671 11.0605 6.39359 10.8851C6.22047 10.6962 6.02072 10.6152 5.7677 10.6152Z" fill="white"/>
<path d="M13.2384 10.6016C12.9987 10.6016 12.7856 10.696 12.6258 10.8714C12.4527 11.0468 12.3728 11.2627 12.3728 11.5191C12.3728 11.7755 12.4527 11.9779 12.6258 12.1668C12.7989 12.3422 12.9987 12.4366 13.2384 12.4366C13.4781 12.4366 13.6912 12.3422 13.8643 12.1668C14.0374 11.9914 14.1306 11.7755 14.1306 11.5191C14.1306 11.2627 14.0374 11.0603 13.8643 10.8714C13.7045 10.6825 13.4914 10.6016 13.2384 10.6016Z" fill="white"/>
<path d="M18.2323 10.6152C17.9926 10.6152 17.7795 10.7097 17.6197 10.8851C17.4466 11.0605 17.3667 11.2764 17.3667 11.5328C17.3667 11.7891 17.4466 11.9915 17.6197 12.1805C17.7928 12.3559 17.9926 12.4503 18.2323 12.4503C18.472 12.4503 18.6851 12.3559 18.8582 12.1805C19.0313 12.005 19.1245 11.7891 19.1245 11.5328C19.1245 11.2764 19.0313 11.0605 18.8582 10.8851C18.6851 10.6962 18.472 10.6152 18.2323 10.6152Z" fill="white"/>
<path d="M20.4429 3.94922H3.55704C2.2653 3.94922 1.19995 5.02868 1.19995 6.33752V16.0122C1.19995 17.321 2.2653 18.4005 3.55704 18.4005H10.1889C10.1889 18.4005 11.4673 21.9492 11.9334 21.9492C12.3995 21.9492 13.7844 18.4005 13.7844 18.4005H20.4429C21.7346 18.4005 22.8 17.321 22.8 16.0122V6.33752C22.8 5.02868 21.7346 3.94922 20.4429 3.94922ZM7.47221 12.8818C7.13929 13.2596 6.61993 13.4215 6.06062 13.4215C5.55457 13.4215 5.1817 13.2731 4.91536 13.0572H4.90205V13.327H3.63694V7.72733H4.90205V9.87276H4.92868C5.27492 9.57591 5.72769 9.48145 6.26037 9.45447C6.71315 9.44097 7.19255 9.72433 7.48553 10.0617C7.76518 10.399 7.97825 10.9252 7.97825 11.5054C7.97825 12.1396 7.81845 12.5039 7.47221 12.8818ZM10.2022 13.381H8.91043C8.91043 13.381 8.91043 10.4395 8.91043 9.91324C8.91043 9.11713 8.28454 9.00919 8.28454 9.00919V7.61938C8.28454 7.61938 10.0956 7.72733 10.2022 9.95372C10.2022 10.5879 10.2022 13.381 10.2022 13.381ZM15.2759 12.315C15.1694 12.5714 15.0096 12.7873 14.7965 12.9897C14.5967 13.1786 14.357 13.327 14.0907 13.435C13.8244 13.5429 13.5447 13.5969 13.2517 13.5969C12.9588 13.5969 12.6791 13.5429 12.4261 13.435C12.1598 13.327 11.9201 13.1786 11.7203 12.9897C11.5072 12.7873 11.3474 12.5579 11.2409 12.315C11.1344 12.0722 11.0811 11.8023 11.0811 11.5189C11.0811 11.2356 11.1344 10.9792 11.2409 10.7228C11.3474 10.48 11.5072 10.2506 11.7203 10.0482C11.9334 9.85926 12.1598 9.71084 12.4261 9.60289C12.6924 9.49495 12.9721 9.44097 13.2517 9.44097C13.5447 9.44097 13.8244 9.49495 14.0907 9.60289C14.357 9.71084 14.5967 9.85926 14.7965 10.0482C15.0096 10.2506 15.1561 10.4665 15.2759 10.7228C15.3824 10.9792 15.4357 11.2356 15.4357 11.5189C15.4357 11.8023 15.3824 12.0587 15.2759 12.315ZM20.363 12.8683C20.363 13.8533 20.1765 14.447 19.7504 14.8653C19.231 15.3645 18.4986 15.3915 17.886 15.3105V14.2985C18.4054 14.3525 19.1112 14.0017 19.1112 13.327V13.0707H19.0979C18.8049 13.4755 18.3921 13.6239 17.8194 13.6239C17.3001 13.6239 16.8473 13.435 16.541 13.0707C16.2347 12.7063 16.0882 12.2206 16.0882 11.6134C16.0882 10.9252 16.2614 10.3855 16.5943 9.9807C16.9405 9.57591 17.4199 9.387 17.9792 9.387C18.472 9.387 18.7916 9.50844 19.0979 9.7918H19.1112V9.48145H20.3763V12.8683H20.363Z" fill="white"/>
</svg>
