<svg width="24" height="25" viewBox="0 0 24 25" fill="none" xmlns="http://www.w3.org/2000/svg">
<path d="M12 9.55566C10.2883 9.55566 8.83337 11.0106 8.83337 12.7223C8.83337 14.434 10.2883 15.889 12 15.889C13.7118 15.889 15.1667 14.434 15.1667 12.7223C15.1667 11.0106 13.7118 9.55566 12 9.55566Z" fill="white"/>
<path d="M16.0591 3.22217H8.02727C4.91818 3.22217 2.5 5.64035 2.5 8.66308V16.6949C2.5 19.804 4.91818 22.2222 8.02727 22.2222H16.0591C19.0818 22.2222 21.5 19.804 21.5 16.6949V8.66308C21.5 5.64035 19.0818 3.22217 16.0591 3.22217ZM12 17.7313C9.23636 17.7313 7.07727 15.4858 7.07727 12.8085C7.07727 10.1313 9.23636 7.79944 12 7.79944C14.7636 7.79944 16.9227 10.0449 16.9227 12.7222C16.9227 15.3994 14.7636 17.7313 12 17.7313ZM17.0955 8.8358C16.4909 8.8358 15.9727 8.31762 15.9727 7.71308C15.9727 7.10853 16.4909 6.59035 17.0955 6.59035C17.7 6.59035 18.2182 7.10853 18.2182 7.71308C18.2182 8.31762 17.7 8.8358 17.0955 8.8358Z" fill="white"/>
</svg>
