<svg width="24" height="25" viewBox="0 0 24 25" fill="none" xmlns="http://www.w3.org/2000/svg">
<path d="M12.002 4.97217C12.0129 4.97217 18.8797 4.9727 20.5977 5.43799C21.5446 5.69024 22.2897 6.43938 22.542 7.39404C22.9999 9.12107 22.9961 12.7222 22.9961 12.7222C22.9961 12.7473 22.9944 16.3294 22.5381 18.0503C22.2858 19.0011 21.5407 19.7502 20.5938 20.0063C18.8781 20.4681 11.998 20.4683 11.998 20.4683C11.9875 20.4683 5.11662 20.4678 3.40234 20.0063C2.45544 19.7541 1.71026 19.005 1.45801 18.0503C1.00169 16.3294 1.00001 12.7473 1 12.7222C1 12.7222 1.00016 9.12104 1.46191 7.39014C1.71416 6.43935 2.45935 5.69021 3.40625 5.43408C5.12178 4.97231 12.002 4.97217 12.002 4.97217ZM9.75098 15.9937L15.502 12.7222L9.75098 9.45068V15.9937Z" fill="white"/>
</svg>
